# This file uses centimeters as units for non-parametric coordinates.

mtllib Seaweed3.mtl
g default
v -1.700000 0.004560 1.700000
v -1.360000 -0.009194 1.700000
v -1.020000 -0.014717 1.700000
v -0.680000 -0.014717 1.700000
v -0.340000 -0.014717 1.700000
v -0.000000 -0.014717 1.700000
v 0.340000 -0.014717 1.700000
v 0.680000 -0.014717 1.700000
v 1.020000 -0.014717 1.700000
v 1.360000 -0.021575 1.700000
v 1.700000 -0.030120 1.700000
v -1.700000 0.027446 1.700000
v -1.360000 0.020433 1.700000
v -1.020000 0.014717 1.700000
v -0.680000 0.014717 1.700000
v -0.340000 0.014717 1.700000
v -0.000000 0.014717 1.700000
v 0.340000 0.014717 1.700000
v 0.680000 0.014717 1.700000
v 1.020000 0.014717 1.700000
v 1.360000 0.007620 1.700000
v 1.700000 -0.001088 1.700000
v -1.700000 0.020433 1.360000
v -1.360000 0.016538 1.360000
v -1.020000 0.014717 1.360000
v -0.680000 0.014717 1.360000
v -0.340000 0.014717 1.360000
v -0.000000 0.014717 1.360000
v 0.340000 0.014717 1.360000
v 0.680000 0.014717 1.360000
v 1.020000 0.014717 1.360000
v 1.360000 0.012456 1.360000
v 1.700000 0.007620 1.360000
v -1.700000 0.014717 1.020000
v -1.360000 0.014717 1.020000
v -1.020000 0.014717 1.020000
v -0.680000 0.014717 1.020000
v -0.340000 0.014717 1.020000
v -0.000000 0.014717 1.020000
v 0.340000 0.014717 1.020000
v 0.680000 0.013536 1.020000
v 1.020000 0.011008 1.020000
v 1.360000 0.013536 1.020000
v 1.700000 0.014717 1.020000
v -1.700000 0.014717 0.680000
v -1.360000 0.014717 0.680000
v -1.020000 0.015586 0.680000
v -0.680000 0.017445 0.680000
v -0.340000 0.015586 0.680000
v -0.000000 0.014717 0.680000
v 0.340000 0.014717 0.680000
v 0.680000 0.011008 0.680000
v 1.020000 0.006458 0.680000
v 1.360000 0.011008 0.680000
v 1.700000 0.014717 0.680000
v -1.700000 0.014717 0.340000
v -1.360000 0.017699 0.340000
v -1.020000 0.026805 0.340000
v -0.680000 0.023775 0.340000
v -0.340000 0.014721 0.340000
v -0.000000 0.006166 0.340000
v 0.340000 0.011993 0.340000
v 0.680000 0.013536 0.340000
v 1.020000 0.011008 0.340000
v 1.360000 0.013536 0.340000
v 1.700000 0.014717 0.340000
v -1.700000 0.014717 0.000000
v -1.360000 0.024077 0.000000
v -1.020000 0.036433 0.000000
v -0.680000 0.026805 0.000000
v -0.340000 0.007031 0.000000
v -0.000000 -0.004327 0.000000
v 0.340000 0.001639 0.000000
v 0.680000 0.000445 0.000000
v 1.020000 0.010170 0.000000
v 1.360000 0.014717 0.000000
v 1.700000 0.014717 0.000000
v -1.700000 0.014717 -0.340000
v -1.360000 0.017699 -0.340000
v -1.020000 0.024077 -0.340000
v -0.680000 0.017699 -0.340000
v -0.340000 0.011993 -0.340000
v -0.000000 0.006166 -0.340000
v 0.340000 -0.002280 -0.340000
v 0.680000 -0.017068 -0.340000
v 1.020000 0.000445 -0.340000
v 1.360000 0.014717 -0.340000
v 1.700000 0.014717 -0.340000
v -1.700000 0.014717 -0.680000
v -1.360000 0.014717 -0.680000
v -1.020000 0.014717 -0.680000
v -0.680000 0.014717 -0.680000
v -0.340000 0.014717 -0.680000
v -0.000000 0.014717 -0.680000
v 0.340000 0.010922 -0.680000
v 0.680000 0.002805 -0.680000
v 1.020000 0.010922 -0.680000
v 1.360000 0.014717 -0.680000
v 1.700000 0.014717 -0.680000
v -1.700000 0.014717 -1.020000
v -1.360000 0.013845 -1.020000
v -1.020000 0.011980 -1.020000
v -0.680000 0.013845 -1.020000
v -0.340000 0.014717 -1.020000
v -0.000000 0.014717 -1.020000
v 0.340000 0.017077 -1.020000
v 0.680000 0.019973 -1.020000
v 1.020000 0.017077 -1.020000
v 1.360000 0.014717 -1.020000
v 1.700000 0.014717 -1.020000
v -1.700000 0.020665 -1.360000
v -1.360000 0.013875 -1.360000
v -1.020000 0.008622 -1.360000
v -0.680000 0.011980 -1.360000
v -0.340000 0.014717 -1.360000
v -0.000000 0.014717 -1.360000
v 0.340000 0.015469 -1.360000
v 0.680000 0.017077 -1.360000
v 1.020000 0.015469 -1.360000
v 1.360000 0.015605 -1.360000
v 1.700000 0.017506 -1.360000
v -1.700000 0.027963 -1.700000
v -1.360000 0.019793 -1.700000
v -1.020000 0.011980 -1.700000
v -0.680000 0.013845 -1.700000
v -0.340000 0.014717 -1.700000
v -0.000000 0.014717 -1.700000
v 0.340000 0.014717 -1.700000
v 0.680000 0.014717 -1.700000
v 1.020000 0.014717 -1.700000
v 1.360000 0.017506 -1.700000
v 1.700000 0.020927 -1.700000
v -1.700000 -0.001809 -1.700000
v -1.360000 -0.009812 -1.700000
v -1.020000 -0.017362 -1.700000
v -0.680000 -0.015543 -1.700000
v -0.340000 -0.014717 -1.700000
v -0.000000 -0.014717 -1.700000
v 0.340000 -0.014717 -1.700000
v 0.680000 -0.014717 -1.700000
v 1.020000 -0.014717 -1.700000
v 1.360000 -0.012022 -1.700000
v 1.700000 -0.008665 -1.700000
v -1.700000 -0.008970 -1.360000
v -1.360000 -0.015577 -1.360000
v -1.020000 -0.020657 -1.360000
v -0.680000 -0.017362 -1.360000
v -0.340000 -0.014717 -1.360000
v -0.000000 -0.014717 -1.360000
v 0.340000 -0.014005 -1.360000
v 0.680000 -0.012436 -1.360000
v 1.020000 -0.014005 -1.360000
v 1.360000 -0.013875 -1.360000
v 1.700000 -0.012022 -1.360000
v -1.700000 -0.014717 -1.020000
v -1.360000 -0.015543 -1.020000
v -1.020000 -0.017362 -1.020000
v -0.680000 -0.015543 -1.020000
v -0.340000 -0.014717 -1.020000
v -0.000000 -0.014717 -1.020000
v 0.340000 -0.012436 -1.020000
v 0.680000 -0.009595 -1.020000
v 1.020000 -0.012436 -1.020000
v 1.360000 -0.014717 -1.020000
v 1.700000 -0.014717 -1.020000
v -1.700000 -0.014717 -0.680000
v -1.360000 -0.014717 -0.680000
v -1.020000 -0.014717 -0.680000
v -0.680000 -0.014717 -0.680000
v -0.340000 -0.014717 -0.680000
v -0.000000 -0.014717 -0.680000
v 0.340000 -0.018325 -0.680000
v 0.680000 -0.026300 -0.680000
v 1.020000 -0.018325 -0.680000
v 1.360000 -0.014717 -0.680000
v 1.700000 -0.014717 -0.680000
v -1.700000 -0.014717 -0.340000
v -1.360000 -0.011900 -0.340000
v -1.020000 -0.005690 -0.340000
v -0.680000 -0.011900 -0.340000
v -0.340000 -0.017299 -0.340000
v -0.000000 -0.022981 -0.340000
v 0.340000 -0.031005 -0.340000
v 0.680000 -0.045693 -0.340000
v 1.020000 -0.028510 -0.340000
v 1.360000 -0.014717 -0.340000
v 1.700000 -0.014717 -0.340000
v -1.700000 -0.014717 -0.000000
v -1.360000 -0.005690 -0.000000
v -1.020000 0.006421 -0.000000
v -0.680000 -0.002998 -0.000000
v -0.340000 -0.022186 -0.000000
v -0.000000 -0.033276 -0.000000
v 0.340000 -0.027142 -0.000000
v 0.680000 -0.028510 -0.000000
v 1.020000 -0.019037 -0.000000
v 1.360000 -0.014717 -0.000000
v 1.700000 -0.014717 -0.000000
v -1.700000 -0.014717 0.340000
v -1.360000 -0.011900 0.340000
v -1.020000 -0.002998 0.340000
v -0.680000 -0.005921 0.340000
v -0.340000 -0.014679 0.340000
v -0.000000 -0.022981 0.340000
v 0.340000 -0.017299 0.340000
v 0.680000 -0.015837 0.340000
v 1.020000 -0.018301 0.340000
v 1.360000 -0.015837 0.340000
v 1.700000 -0.014717 0.340000
v -1.700000 -0.014717 0.680000
v -1.360000 -0.014717 0.680000
v -1.020000 -0.013893 0.680000
v -0.680000 -0.012081 0.680000
v -0.340000 -0.013893 0.680000
v -0.000000 -0.014717 0.680000
v 0.340000 -0.014717 0.680000
v 0.680000 -0.018301 0.680000
v 1.020000 -0.022766 0.680000
v 1.360000 -0.018301 0.680000
v 1.700000 -0.014717 0.680000
v -1.700000 -0.014717 1.020000
v -1.360000 -0.014717 1.020000
v -1.020000 -0.014717 1.020000
v -0.680000 -0.014717 1.020000
v -0.340000 -0.014717 1.020000
v -0.000000 -0.014717 1.020000
v 0.340000 -0.014717 1.020000
v 0.680000 -0.015837 1.020000
v 1.020000 -0.018301 1.020000
v 1.360000 -0.015837 1.020000
v 1.700000 -0.014717 1.020000
v -1.700000 -0.009194 1.360000
v -1.360000 -0.012992 1.360000
v -1.020000 -0.014717 1.360000
v -0.680000 -0.014717 1.360000
v -0.340000 -0.014717 1.360000
v -0.000000 -0.014717 1.360000
v 0.340000 -0.014717 1.360000
v 0.680000 -0.014717 1.360000
v 1.020000 -0.014717 1.360000
v 1.360000 -0.016860 1.360000
v 1.700000 -0.021575 1.360000
vt 0.516296 0.049994
vt 0.516790 0.000000
vt 0.521141 0.000000
vt 0.520638 0.049994
vt 0.515900 0.099987
vt 0.520228 0.099988
vt 0.515900 0.149981
vt 0.520228 0.149981
vt 0.515900 0.199975
vt 0.520228 0.199975
vt 0.515900 0.249969
vt 0.520228 0.249969
vt 0.515900 0.299963
vt 0.520228 0.299963
vt 0.515900 0.349956
vt 0.520228 0.349956
vt 0.515900 0.399950
vt 0.520228 0.399950
vt 0.514891 0.449944
vt 0.519184 0.449944
vt 0.513635 0.499938
vt 0.517904 0.499938
vt 0.531337 0.499935
vt 0.530284 0.449942
vt 0.534642 0.449942
vt 0.535715 0.499935
vt 0.529439 0.399948
vt 0.533767 0.399948
vt 0.529439 0.349955
vt 0.533767 0.349955
vt 0.529439 0.299961
vt 0.533767 0.299961
vt 0.529439 0.249968
vt 0.533767 0.249968
vt 0.529439 0.199974
vt 0.533767 0.199974
vt 0.529439 0.149980
vt 0.533767 0.149980
vt 0.529439 0.099987
vt 0.533767 0.099987
vt 0.530251 0.049994
vt 0.534608 0.049994
vt 0.532274 0.000000
vt 0.535639 0.000000
vt 0.000000 0.000000
vt 0.050000 0.000000
vt 0.050000 0.050000
vt 0.000000 0.050000
vt 0.100000 0.000000
vt 0.100000 0.050000
vt 0.050000 0.100000
vt 0.000000 0.100000
vt 0.150000 0.000000
vt 0.150000 0.050000
vt 0.100000 0.100000
vt 0.050000 0.150000
vt 0.000000 0.150000
vt 0.200000 0.000000
vt 0.200000 0.050000
vt 0.150000 0.100000
vt 0.100000 0.150000
vt 0.050000 0.200000
vt 0.000000 0.200000
vt 0.250001 0.000000
vt 0.250001 0.050000
vt 0.200000 0.100000
vt 0.150000 0.150000
vt 0.100000 0.200000
vt 0.050000 0.250001
vt 0.000000 0.250001
vt 0.300001 0.000000
vt 0.300001 0.050000
vt 0.250001 0.100000
vt 0.200000 0.150000
vt 0.150000 0.200000
vt 0.100000 0.250001
vt 0.050000 0.300001
vt 0.000000 0.300001
vt 0.350001 0.000000
vt 0.350001 0.050000
vt 0.300001 0.100000
vt 0.250001 0.150000
vt 0.200000 0.200000
vt 0.150000 0.250001
vt 0.100000 0.300001
vt 0.050000 0.350001
vt 0.000000 0.350001
vt 0.400001 0.000000
vt 0.400001 0.050000
vt 0.350001 0.100000
vt 0.300001 0.150000
vt 0.250001 0.200000
vt 0.200000 0.250001
vt 0.150000 0.300001
vt 0.100000 0.350001
vt 0.050000 0.400001
vt 0.000000 0.400001
vt 0.450001 0.000000
vt 0.450001 0.050000
vt 0.400001 0.100000
vt 0.350001 0.150000
vt 0.300001 0.200000
vt 0.250001 0.250001
vt 0.200000 0.300001
vt 0.150000 0.350001
vt 0.100000 0.400001
vt 0.050000 0.450001
vt 0.000000 0.450001
vt 0.500001 0.000000
vt 0.500001 0.050000
vt 0.450001 0.100000
vt 0.400001 0.150000
vt 0.350001 0.200000
vt 0.300001 0.250001
vt 0.250001 0.300001
vt 0.200000 0.350001
vt 0.150000 0.400001
vt 0.100000 0.450001
vt 0.050000 0.500001
vt 0.000000 0.500001
vt 0.500001 0.100000
vt 0.450001 0.150000
vt 0.400001 0.200000
vt 0.350001 0.250001
vt 0.300001 0.300001
vt 0.250001 0.350001
vt 0.200000 0.400001
vt 0.150000 0.450001
vt 0.100000 0.500001
vt 0.500001 0.150000
vt 0.450001 0.200000
vt 0.400001 0.250001
vt 0.350001 0.300001
vt 0.300001 0.350001
vt 0.250001 0.400001
vt 0.200000 0.450001
vt 0.150000 0.500001
vt 0.500001 0.200000
vt 0.450001 0.250001
vt 0.400001 0.300001
vt 0.350001 0.350001
vt 0.300001 0.400001
vt 0.250001 0.450001
vt 0.200000 0.500001
vt 0.500001 0.250001
vt 0.450001 0.300001
vt 0.400001 0.350001
vt 0.350001 0.400001
vt 0.300001 0.450001
vt 0.250001 0.500001
vt 0.500001 0.300001
vt 0.450001 0.350001
vt 0.400001 0.400001
vt 0.350001 0.450001
vt 0.300001 0.500001
vt 0.500001 0.350001
vt 0.450001 0.400001
vt 0.400001 0.450001
vt 0.350001 0.500001
vt 0.500001 0.400001
vt 0.450001 0.450001
vt 0.400001 0.500001
vt 0.500001 0.450001
vt 0.450001 0.500001
vt 0.500001 0.500001
vt 0.000000 0.500001
vt 0.050000 0.500001
vt 0.050000 0.550001
vt 0.000000 0.550001
vt 0.100000 0.500001
vt 0.100000 0.550001
vt 0.050000 0.600001
vt 0.000000 0.600001
vt 0.150000 0.500001
vt 0.150000 0.550001
vt 0.100000 0.600001
vt 0.050000 0.650001
vt 0.000000 0.650001
vt 0.200000 0.500001
vt 0.200000 0.550001
vt 0.150000 0.600001
vt 0.100000 0.650001
vt 0.050000 0.700001
vt 0.000000 0.700001
vt 0.250000 0.500001
vt 0.250000 0.550001
vt 0.200000 0.600001
vt 0.150000 0.650001
vt 0.100000 0.700001
vt 0.050000 0.750001
vt 0.000000 0.750001
vt 0.300000 0.500001
vt 0.300000 0.550001
vt 0.250000 0.600001
vt 0.200000 0.650001
vt 0.150000 0.700001
vt 0.100000 0.750001
vt 0.050000 0.800000
vt 0.000000 0.800000
vt 0.349999 0.500001
vt 0.349999 0.550001
vt 0.300000 0.600001
vt 0.250000 0.650001
vt 0.200000 0.700001
vt 0.150000 0.750001
vt 0.100000 0.800000
vt 0.050000 0.850000
vt 0.000000 0.850000
vt 0.399999 0.500001
vt 0.399999 0.550001
vt 0.349999 0.600001
vt 0.300000 0.650001
vt 0.250000 0.700001
vt 0.200000 0.750001
vt 0.150000 0.800000
vt 0.100000 0.850000
vt 0.050000 0.900000
vt 0.000000 0.900000
vt 0.449999 0.500001
vt 0.449999 0.550001
vt 0.399999 0.600001
vt 0.349999 0.650001
vt 0.300000 0.700001
vt 0.250000 0.750001
vt 0.200000 0.800000
vt 0.150000 0.850000
vt 0.100000 0.900000
vt 0.050000 0.950000
vt 0.000000 0.950000
vt 0.499999 0.500001
vt 0.499999 0.550001
vt 0.449999 0.600001
vt 0.399999 0.650001
vt 0.349999 0.700001
vt 0.300000 0.750001
vt 0.250000 0.800000
vt 0.200000 0.850000
vt 0.150000 0.900000
vt 0.100000 0.950000
vt 0.050000 1.000000
vt 0.000000 1.000000
vt 0.499999 0.600001
vt 0.449999 0.650001
vt 0.399999 0.700001
vt 0.349999 0.750001
vt 0.300000 0.800000
vt 0.250000 0.850000
vt 0.200000 0.900000
vt 0.150000 0.950000
vt 0.100000 1.000000
vt 0.499999 0.650001
vt 0.449999 0.700001
vt 0.399999 0.750001
vt 0.349999 0.800000
vt 0.300000 0.850000
vt 0.250000 0.900000
vt 0.200000 0.950000
vt 0.150000 1.000000
vt 0.499999 0.700001
vt 0.449999 0.750001
vt 0.399999 0.800000
vt 0.349999 0.850000
vt 0.300000 0.900000
vt 0.250000 0.950000
vt 0.200000 1.000000
vt 0.499999 0.750001
vt 0.449999 0.800000
vt 0.399999 0.850000
vt 0.349999 0.900000
vt 0.300000 0.950000
vt 0.250000 1.000000
vt 0.499999 0.800000
vt 0.449999 0.850000
vt 0.399999 0.900000
vt 0.349999 0.950000
vt 0.300000 1.000000
vt 0.499999 0.850000
vt 0.449999 0.900000
vt 0.399999 0.950000
vt 0.349999 1.000000
vt 0.499999 0.900000
vt 0.449999 0.950000
vt 0.399999 1.000000
vt 0.499999 0.950000
vt 0.449999 1.000000
vt 0.499999 1.000000
vt 0.506881 0.499935
vt 0.504859 0.449941
vt 0.509215 0.449941
vt 0.510246 0.499935
vt 0.504047 0.399948
vt 0.508375 0.399948
vt 0.504047 0.349954
vt 0.508375 0.349954
vt 0.504047 0.299961
vt 0.508375 0.299961
vt 0.504047 0.249967
vt 0.508375 0.249967
vt 0.504047 0.199974
vt 0.508375 0.199974
vt 0.504047 0.149980
vt 0.508375 0.149980
vt 0.504047 0.099987
vt 0.508375 0.099987
vt 0.503038 0.049993
vt 0.507331 0.049993
vt 0.501782 0.000000
vt 0.506051 0.000000
vt 0.521537 0.499936
vt 0.522738 0.449942
vt 0.527091 0.449942
vt 0.525915 0.499936
vt 0.523887 0.399949
vt 0.528202 0.399949
vt 0.523613 0.349955
vt 0.527934 0.349955
vt 0.523485 0.299962
vt 0.527813 0.299962
vt 0.523485 0.249968
vt 0.527813 0.249968
vt 0.523485 0.199974
vt 0.527813 0.199974
vt 0.523485 0.149981
vt 0.527813 0.149981
vt 0.523485 0.099987
vt 0.527813 0.099987
vt 0.523075 0.049994
vt 0.527416 0.049994
vt 0.522572 0.000000
vt 0.526923 0.000000
vn -0.000000 0.000000 1.000000
vn 0.000000 0.000000 1.000000
vn -0.000000 0.000000 1.000000
vn -0.000000 0.000000 1.000000
vn 0.000000 0.000000 1.000000
vn 0.000000 0.000000 1.000000
vn 0.000000 0.000000 1.000000
vn 0.000000 0.000000 1.000000
vn 0.000000 0.000000 1.000000
vn 0.000000 0.000000 1.000000
vn 0.000000 0.000000 1.000000
vn 0.000000 0.000000 1.000000
vn 0.000000 0.000000 1.000000
vn 0.000000 0.000000 1.000000
vn 0.000000 0.000000 1.000000
vn 0.000000 0.000000 1.000000
vn -0.000000 0.000000 1.000000
vn -0.000000 0.000000 1.000000
vn 0.000000 0.000000 1.000000
vn -0.000000 0.000000 1.000000
vn 0.000000 0.000000 1.000000
vn 0.000000 0.000000 1.000000
vn 0.016037 0.999743 -0.016037
vn 0.013560 0.999849 -0.010883
vn 0.008881 0.999921 -0.008881
vn 0.010883 0.999849 -0.013560
vn 0.005541 0.999981 -0.002864
vn 0.003440 0.999992 -0.002101
vn 0.000000 1.000000 0.000000
vn 0.000000 1.000000 0.000000
vn 0.000000 1.000000 0.000000
vn 0.000000 1.000000 0.000000
vn 0.000000 1.000000 0.000000
vn 0.000000 1.000000 0.000000
vn 0.000000 1.000000 0.000000
vn 0.000434 1.000000 -0.000434
vn 0.000000 1.000000 0.000000
vn 0.001364 0.999997 -0.002232
vn 0.006880 0.999970 0.003556
vn 0.004272 0.999990 -0.000987
vn 0.016836 0.999767 0.013513
vn 0.009664 0.999915 0.008795
vn 0.019910 0.999604 0.019910
vn 0.012645 0.999793 0.015968
vn 0.001782 0.999994 -0.003121
vn 0.002864 0.999981 -0.005541
vn -0.000334 1.000000 0.000973
vn 0.000000 0.999996 0.002645
vn 0.001003 0.999998 0.001642
vn 0.000320 1.000000 0.000320
vn 0.002232 0.999997 -0.001364
vn 0.005763 0.999967 -0.005763
vn 0.000831 0.999968 -0.007969
vn -0.003154 0.999994 -0.001492
vn -0.000909 0.999991 0.004153
vn -0.005083 0.999965 0.006636
vn -0.002193 0.999995 0.002193
vn -0.004240 0.999902 0.013313
vn 0.004443 0.999928 0.011105
vn 0.008480 0.999964 0.000189
vn 0.001642 0.999972 -0.007288
vn 0.000452 0.999987 -0.005147
vn 0.007799 0.999969 -0.001001
vn -0.000000 1.000000 -0.000000
vn -0.008800 0.999961 0.000000
vn -0.007191 0.999974 -0.000000
vn -0.017186 0.999747 0.014542
vn -0.011266 0.999913 0.006882
vn -0.006473 0.999733 0.022205
vn 0.019691 0.999741 0.011398
vn 0.025389 0.999629 -0.009846
vn 0.004308 0.999750 -0.021953
vn -0.005807 0.999773 -0.020496
vn 0.000625 0.999937 -0.011209
vn -0.005247 0.999986 0.000210
vn -0.007435 0.999964 0.004092
vn -0.004465 0.999986 0.002727
vn -0.023848 0.999715 -0.001003
vn -0.018147 0.999835 0.000000
vn -0.004238 0.999982 -0.004238
vn 0.030486 0.999514 -0.006473
vn 0.033583 0.999427 -0.004237
vn 0.010211 0.999928 -0.006251
vn 0.002321 0.999761 -0.021743
vn -0.006915 0.999476 -0.031621
vn -0.022169 0.999582 -0.018574
vn -0.009953 0.999946 -0.003015
vn -0.000869 0.999999 0.000869
vn -0.014862 0.999779 -0.014862
vn -0.011266 0.999913 -0.006882
vn -0.001003 0.999715 -0.023848
vn 0.019690 0.999708 -0.014041
vn 0.019922 0.999768 0.008206
vn 0.013871 0.999699 0.020238
vn 0.019708 0.999698 0.014693
vn -0.005135 0.999972 0.005421
vn -0.032985 0.999455 0.001421
vn -0.013560 0.999908 0.000276
vn 0.000000 1.000000 0.000000
vn -0.002435 0.999971 -0.007281
vn -0.001552 0.999995 -0.002834
vn -0.000000 0.999931 -0.011728
vn 0.003436 0.999974 -0.006279
vn 0.003920 0.999985 0.003730
vn 0.007169 0.999871 0.014403
vn 0.015357 0.999402 0.030975
vn -0.001002 0.999182 0.040440
vn -0.018501 0.999495 0.025833
vn -0.007170 0.999956 0.006115
vn 0.000000 1.000000 0.000000
vn 0.006440 0.999979 -0.000674
vn 0.006275 0.999973 0.003754
vn 0.000697 0.999983 -0.005798
vn -0.004253 0.999982 -0.004253
vn -0.001647 0.999998 -0.001006
vn -0.000617 0.999998 0.001672
vn -0.000353 0.999963 0.008591
vn -0.000000 0.999904 0.013834
vn 0.000026 0.999960 0.008917
vn -0.000409 0.999994 0.003350
vn -0.001397 0.999995 0.002703
vn 0.015734 0.999834 0.009241
vn 0.016631 0.999762 0.014110
vn 0.003580 0.999991 0.002187
vn -0.006494 0.999979 0.000000
vn -0.002654 0.999996 0.000000
vn -0.001421 0.999999 -0.000868
vn -0.003668 0.999987 -0.003668
vn -0.000000 0.999984 -0.005600
vn 0.001989 0.999995 -0.002643
vn -0.002913 0.999990 0.003466
vn -0.005310 0.999964 0.006616
vn 0.020600 0.999651 0.016533
vn 0.021990 0.999569 0.019427
vn 0.005767 0.999927 0.010661
vn -0.006494 0.999965 0.005212
vn -0.002654 0.999996 0.001371
vn -0.000553 1.000000 -0.000553
vn -0.001735 0.999995 -0.002841
vn -0.000000 0.999990 -0.004576
vn -0.000968 0.999999 -0.001444
vn -0.006063 0.999970 0.004757
vn -0.007825 0.999939 0.007825
vn 0.000000 0.000000 -1.000000
vn 0.000000 0.000000 -1.000000
vn 0.000000 0.000000 -1.000000
vn 0.000000 0.000000 -1.000000
vn 0.000000 0.000000 -1.000000
vn 0.000000 0.000000 -1.000000
vn -0.000000 0.000000 -1.000000
vn 0.000000 0.000000 -1.000000
vn -0.000000 0.000000 -1.000000
vn -0.000000 0.000000 -1.000000
vn 0.000000 0.000000 -1.000000
vn 0.000000 0.000000 -1.000000
vn 0.000000 0.000000 -1.000000
vn 0.000000 0.000000 -1.000000
vn 0.000000 0.000000 -1.000000
vn 0.000000 0.000000 -1.000000
vn -0.000000 0.000000 -1.000000
vn -0.000000 0.000000 -1.000000
vn 0.000000 0.000000 -1.000000
vn -0.000000 0.000000 -1.000000
vn 0.000000 0.000000 -1.000000
vn 0.000000 0.000000 -1.000000
vn -0.021477 -0.999589 -0.019001
vn -0.020024 -0.999669 -0.016162
vn -0.015282 -0.999843 -0.008958
vn -0.016207 -0.999775 -0.013704
vn -0.005527 -0.999931 -0.010422
vn -0.003419 -0.999992 -0.002107
vn 0.006312 -0.999967 -0.005097
vn 0.006313 -0.999980 -0.000000
vn 0.002552 -0.999996 -0.001337
vn 0.002552 -0.999997 0.000000
vn 0.000524 -1.000000 0.000524
vn 0.001362 -0.999999 0.000838
vn 0.001677 -0.999995 0.002725
vn 0.003560 -0.999987 0.003560
vn 0.000000 -0.999990 0.004402
vn 0.000000 -0.999985 0.005443
vn 0.000923 -0.999999 0.001363
vn -0.001950 -0.999995 0.002569
vn 0.005907 -0.999972 -0.004669
vn 0.002844 -0.999990 -0.003368
vn 0.007661 -0.999941 -0.007661
vn 0.005193 -0.999966 -0.006431
vn -0.006242 -0.999980 0.000703
vn -0.006074 -0.999975 -0.003594
vn -0.000656 -0.999984 0.005656
vn 0.004129 -0.999983 0.004129
vn 0.001580 -0.999998 0.000972
vn 0.000613 -0.999999 -0.001588
vn 0.000346 -0.999966 -0.008274
vn 0.000000 -0.999911 -0.013367
vn -0.000037 -0.999963 -0.008583
vn 0.000378 -0.999995 -0.003198
vn 0.001362 -0.999996 -0.002600
vn 0.002346 -0.999973 0.006970
vn 0.001464 -0.999995 0.002679
vn 0.000000 -0.999937 0.011261
vn -0.003296 -0.999976 0.006021
vn -0.003770 -0.999986 -0.003597
vn -0.006852 -0.999881 -0.013850
vn -0.014973 -0.999439 -0.029944
vn 0.000917 -0.999229 -0.039253
vn 0.018011 -0.999523 -0.025076
vn 0.006885 -0.999959 -0.005909
vn 0.000000 -1.000000 0.000000
vn 0.014406 -0.999793 0.014406
vn 0.010780 -0.999920 0.006637
vn 0.000990 -0.999731 0.023166
vn -0.019049 -0.999726 0.013637
vn -0.019276 -0.999782 -0.008004
vn -0.013225 -0.999720 -0.019631
vn -0.019206 -0.999716 -0.014117
vn 0.004810 -0.999975 -0.005125
vn 0.032094 -0.999484 -0.001337
vn 0.013055 -0.999915 -0.000262
vn 0.000000 -1.000000 0.000000
vn 0.023166 -0.999731 0.000990
vn 0.017416 -0.999848 0.000000
vn 0.004175 -0.999983 0.004175
vn -0.029580 -0.999542 0.006348
vn -0.032588 -0.999460 0.004122
vn -0.009643 -0.999936 0.006002
vn -0.002216 -0.999776 0.021051
vn 0.006510 -0.999506 0.030734
vn 0.021519 -0.999605 0.018061
vn 0.009565 -0.999950 0.002930
vn 0.000823 -0.999999 -0.000823
vn 0.016686 -0.999761 -0.014103
vn 0.010780 -0.999920 -0.006637
vn 0.006355 -0.999747 -0.021590
vn -0.019102 -0.999756 -0.011096
vn -0.024637 -0.999651 0.009576
vn -0.004051 -0.999766 0.021260
vn 0.005686 -0.999790 0.019707
vn -0.000717 -0.999942 0.010702
vn 0.005071 -0.999987 -0.000307
vn 0.007183 -0.999966 -0.004006
vn 0.004282 -0.999987 -0.002635
vn 0.004914 -0.999968 -0.006380
vn 0.002071 -0.999996 -0.002071
vn 0.004137 -0.999909 -0.012885
vn -0.004294 -0.999933 -0.010790
vn -0.008210 -0.999966 -0.000224
vn -0.001569 -0.999974 0.007011
vn -0.000420 -0.999988 0.004937
vn -0.007605 -0.999971 0.000949
vn -0.000000 -1.000000 0.000000
vn 0.008554 -0.999963 0.000000
vn 0.006917 -0.999976 0.000000
vn -0.001728 -0.999994 0.002997
vn -0.002792 -0.999982 0.005330
vn 0.000335 -1.000000 -0.000941
vn 0.000000 -0.999997 -0.002544
vn -0.000969 -0.999998 -0.001575
vn -0.000303 -1.000000 -0.000303
vn -0.002141 -0.999997 0.001318
vn -0.005594 -0.999969 0.005594
vn -0.000788 -0.999970 0.007766
vn 0.003073 -0.999994 0.001498
vn 0.000815 -0.999992 -0.003983
vn -0.011147 -0.999876 0.011147
vn -0.015695 -0.999711 0.018232
vn -0.003299 -0.999992 0.002031
vn 0.000000 -1.000000 0.000000
vn 0.000000 -1.000000 0.000000
vn 0.000000 -1.000000 0.000000
vn -0.000412 -1.000000 0.000412
vn -0.001318 -0.999997 0.002141
vn -0.004097 -0.999991 0.000937
vn -0.009387 -0.999919 -0.008563
vn -0.012393 -0.999802 -0.015542
vn -0.018232 -0.999711 0.015695
vn -0.025793 -0.999335 0.025793
vn -0.005330 -0.999982 0.002792
vn 0.000000 -1.000000 0.000000
vn 0.000000 -1.000000 0.000000
vn 0.000000 -1.000000 0.000000
vn 0.000000 -1.000000 0.000000
vn 0.000000 -1.000000 0.000000
vn -0.006618 -0.999972 -0.003467
vn -0.016365 -0.999779 -0.013215
vn -0.019492 -0.999620 -0.019492
vn 1.000000 0.000001 0.000000
vn 1.000000 0.000000 0.000000
vn 1.000000 0.000000 0.000000
vn 1.000000 0.000001 0.000000
vn 1.000000 0.000000 0.000000
vn 1.000000 0.000000 0.000000
vn 1.000000 0.000001 0.000000
vn 1.000000 0.000001 0.000000
vn 1.000000 0.000001 0.000000
vn 1.000000 0.000001 0.000000
vn 1.000000 -0.000002 0.000000
vn 1.000000 -0.000002 0.000000
vn 1.000000 -0.000005 0.000000
vn 1.000000 -0.000005 0.000000
vn 1.000000 -0.000003 0.000000
vn 1.000000 -0.000003 0.000000
vn 1.000000 0.000001 0.000000
vn 1.000000 0.000001 0.000000
vn 1.000000 0.000000 0.000000
vn 1.000000 0.000000 0.000000
vn 1.000000 0.000000 0.000000
vn 1.000000 0.000000 0.000000
vn -1.000000 0.000000 0.000000
vn -1.000000 0.000000 0.000000
vn -1.000000 0.000000 0.000000
vn -1.000000 0.000000 0.000000
vn -1.000000 0.000002 0.000000
vn -1.000000 0.000002 0.000000
vn -1.000000 0.000003 0.000000
vn -1.000000 0.000003 0.000000
vn -1.000000 -0.000001 0.000000
vn -1.000000 -0.000001 0.000000
vn -1.000000 0.000002 0.000000
vn -1.000000 0.000002 0.000000
vn -1.000000 0.000005 0.000000
vn -1.000000 0.000005 0.000000
vn -1.000000 -0.000001 0.000000
vn -1.000000 -0.000001 0.000000
vn -1.000000 -0.000003 0.000000
vn -1.000000 -0.000003 0.000000
vn -1.000000 -0.000001 0.000000
vn -1.000000 -0.000001 0.000000
vn -1.000000 0.000000 0.000000
vn -1.000000 0.000000 0.000000
s 1
g Seaweed1
usemtl lambert2SG
f 1/287/1 2/288/2 13/289/3 12/290/4
f 2/288/2 3/291/5 14/292/6 13/289/3
f 3/291/5 4/293/7 15/294/8 14/292/6
f 4/293/7 5/295/9 16/296/10 15/294/8
f 5/295/9 6/297/11 17/298/12 16/296/10
f 6/297/11 7/299/13 18/300/14 17/298/12
f 7/299/13 8/301/15 19/302/16 18/300/14
f 8/301/15 9/303/17 20/304/18 19/302/16
f 9/303/17 10/305/19 21/306/20 20/304/18
f 10/305/19 11/307/21 22/308/22 21/306/20
s 2
f 12/45/23 13/46/24 24/47/25 23/48/26
f 13/46/24 14/49/27 25/50/28 24/47/25
f 14/49/27 15/53/29 26/54/30 25/50/28
f 15/53/29 16/58/31 27/59/32 26/54/30
f 16/58/31 17/64/33 28/65/34 27/59/32
f 17/64/33 18/71/35 29/72/36 28/65/34
f 18/71/35 19/79/37 30/80/38 29/72/36
f 19/79/37 20/88/39 31/89/40 30/80/38
f 20/88/39 21/98/41 32/99/42 31/89/40
f 21/98/41 22/109/43 33/110/44 32/99/42
f 23/48/26 24/47/25 35/51/45 34/52/46
f 24/47/25 25/50/28 36/55/47 35/51/45
f 25/50/28 26/54/30 37/60/48 36/55/47
f 26/54/30 27/59/32 38/66/49 37/60/48
f 27/59/32 28/65/34 39/73/50 38/66/49
f 28/65/34 29/72/36 40/81/51 39/73/50
f 29/72/36 30/80/38 41/90/52 40/81/51
f 30/80/38 31/89/40 42/100/53 41/90/52
f 31/89/40 32/99/42 43/111/54 42/100/53
f 32/99/42 33/110/44 44/121/55 43/111/54
f 34/52/46 35/51/45 46/56/56 45/57/57
f 35/51/45 36/55/47 47/61/58 46/56/56
f 36/55/47 37/60/48 48/67/59 47/61/58
f 37/60/48 38/66/49 49/74/60 48/67/59
f 38/66/49 39/73/50 50/82/61 49/74/60
f 39/73/50 40/81/51 51/91/62 50/82/61
f 40/81/51 41/90/52 52/101/63 51/91/62
f 41/90/52 42/100/53 53/112/64 52/101/63
f 42/100/53 43/111/54 54/122/65 53/112/64
f 43/111/54 44/121/55 55/130/66 54/122/65
f 45/57/57 46/56/56 57/62/67 56/63/68
f 46/56/56 47/61/58 58/68/69 57/62/67
f 47/61/58 48/67/59 59/75/70 58/68/69
f 48/67/59 49/74/60 60/83/71 59/75/70
f 49/74/60 50/82/61 61/92/72 60/83/71
f 50/82/61 51/91/62 62/102/73 61/92/72
f 51/91/62 52/101/63 63/113/74 62/102/73
f 52/101/63 53/112/64 64/123/75 63/113/74
f 53/112/64 54/122/65 65/131/76 64/123/75
f 54/122/65 55/130/66 66/138/77 65/131/76
f 56/63/68 57/62/67 68/69/78 67/70/79
f 57/62/67 58/68/69 69/76/80 68/69/78
f 58/68/69 59/75/70 70/84/81 69/76/80
f 59/75/70 60/83/71 71/93/82 70/84/81
f 60/83/71 61/92/72 72/103/83 71/93/82
f 61/92/72 62/102/73 73/114/84 72/103/83
f 62/102/73 63/113/74 74/124/85 73/114/84
f 63/113/74 64/123/75 75/132/86 74/124/85
f 64/123/75 65/131/76 76/139/87 75/132/86
f 65/131/76 66/138/77 77/145/88 76/139/87
f 67/70/79 68/69/78 79/77/89 78/78/90
f 68/69/78 69/76/80 80/85/91 79/77/89
f 69/76/80 70/84/81 81/94/92 80/85/91
f 70/84/81 71/93/82 82/104/93 81/94/92
f 71/93/82 72/103/83 83/115/94 82/104/93
f 72/103/83 73/114/84 84/125/95 83/115/94
f 73/114/84 74/124/85 85/133/96 84/125/95
f 74/124/85 75/132/86 86/140/97 85/133/96
f 75/132/86 76/139/87 87/146/98 86/140/97
f 76/139/87 77/145/88 88/151/99 87/146/98
f 78/78/90 79/77/89 90/86/100 89/87/101
f 79/77/89 80/85/91 91/95/102 90/86/100
f 80/85/91 81/94/92 92/105/103 91/95/102
f 81/94/92 82/104/93 93/116/104 92/105/103
f 82/104/93 83/115/94 94/126/105 93/116/104
f 83/115/94 84/125/95 95/134/106 94/126/105
f 84/125/95 85/133/96 96/141/107 95/134/106
f 85/133/96 86/140/97 97/147/108 96/141/107
f 86/140/97 87/146/98 98/152/109 97/147/108
f 87/146/98 88/151/99 99/156/110 98/152/109
f 89/87/101 90/86/100 101/96/111 100/97/112
f 90/86/100 91/95/102 102/106/113 101/96/111
f 91/95/102 92/105/103 103/117/114 102/106/113
f 92/105/103 93/116/104 104/127/115 103/117/114
f 93/116/104 94/126/105 105/135/116 104/127/115
f 94/126/105 95/134/106 106/142/117 105/135/116
f 95/134/106 96/141/107 107/148/118 106/142/117
f 96/141/107 97/147/108 108/153/119 107/148/118
f 97/147/108 98/152/109 109/157/120 108/153/119
f 98/152/109 99/156/110 110/160/121 109/157/120
f 100/97/112 101/96/111 112/107/122 111/108/123
f 101/96/111 102/106/113 113/118/124 112/107/122
f 102/106/113 103/117/114 114/128/125 113/118/124
f 103/117/114 104/127/115 115/136/126 114/128/125
f 104/127/115 105/135/116 116/143/127 115/136/126
f 105/135/116 106/142/117 117/149/128 116/143/127
f 106/142/117 107/148/118 118/154/129 117/149/128
f 107/148/118 108/153/119 119/158/130 118/154/129
f 108/153/119 109/157/120 120/161/131 119/158/130
f 109/157/120 110/160/121 121/163/132 120/161/131
f 111/108/123 112/107/122 123/119/133 122/120/134
f 112/107/122 113/118/124 124/129/135 123/119/133
f 113/118/124 114/128/125 125/137/136 124/129/135
f 114/128/125 115/136/126 126/144/137 125/137/136
f 115/136/126 116/143/127 127/150/138 126/144/137
f 116/143/127 117/149/128 128/155/139 127/150/138
f 117/149/128 118/154/129 129/159/140 128/155/139
f 118/154/129 119/158/130 130/162/141 129/159/140
f 119/158/130 120/161/131 131/164/142 130/162/141
f 120/161/131 121/163/132 132/165/143 131/164/142
s 3
f 122/309/144 123/310/145 134/311/146 133/312/147
f 123/310/145 124/313/148 135/314/149 134/311/146
f 124/313/148 125/315/150 136/316/151 135/314/149
f 125/315/150 126/317/152 137/318/153 136/316/151
f 126/317/152 127/319/154 138/320/155 137/318/153
f 127/319/154 128/321/156 139/322/157 138/320/155
f 128/321/156 129/323/158 140/324/159 139/322/157
f 129/323/158 130/325/160 141/326/161 140/324/159
f 130/325/160 131/327/162 142/328/163 141/326/161
f 131/327/162 132/329/164 143/330/165 142/328/163
s 4
f 133/166/166 134/167/167 145/168/168 144/169/169
f 134/167/167 135/170/170 146/171/171 145/168/168
f 135/170/170 136/174/172 147/175/173 146/171/171
f 136/174/172 137/179/174 148/180/175 147/175/173
f 137/179/174 138/185/176 149/186/177 148/180/175
f 138/185/176 139/192/178 150/193/179 149/186/177
f 139/192/178 140/200/180 151/201/181 150/193/179
f 140/200/180 141/209/182 152/210/183 151/201/181
f 141/209/182 142/219/184 153/220/185 152/210/183
f 142/219/184 143/230/186 154/231/187 153/220/185
f 144/169/169 145/168/168 156/172/188 155/173/189
f 145/168/168 146/171/171 157/176/190 156/172/188
f 146/171/171 147/175/173 158/181/191 157/176/190
f 147/175/173 148/180/175 159/187/192 158/181/191
f 148/180/175 149/186/177 160/194/193 159/187/192
f 149/186/177 150/193/179 161/202/194 160/194/193
f 150/193/179 151/201/181 162/211/195 161/202/194
f 151/201/181 152/210/183 163/221/196 162/211/195
f 152/210/183 153/220/185 164/232/197 163/221/196
f 153/220/185 154/231/187 165/242/198 164/232/197
f 155/173/189 156/172/188 167/177/199 166/178/200
f 156/172/188 157/176/190 168/182/201 167/177/199
f 157/176/190 158/181/191 169/188/202 168/182/201
f 158/181/191 159/187/192 170/195/203 169/188/202
f 159/187/192 160/194/193 171/203/204 170/195/203
f 160/194/193 161/202/194 172/212/205 171/203/204
f 161/202/194 162/211/195 173/222/206 172/212/205
f 162/211/195 163/221/196 174/233/207 173/222/206
f 163/221/196 164/232/197 175/243/208 174/233/207
f 164/232/197 165/242/198 176/251/209 175/243/208
f 166/178/200 167/177/199 178/183/210 177/184/211
f 167/177/199 168/182/201 179/189/212 178/183/210
f 168/182/201 169/188/202 180/196/213 179/189/212
f 169/188/202 170/195/203 181/204/214 180/196/213
f 170/195/203 171/203/204 182/213/215 181/204/214
f 171/203/204 172/212/205 183/223/216 182/213/215
f 172/212/205 173/222/206 184/234/217 183/223/216
f 173/222/206 174/233/207 185/244/218 184/234/217
f 174/233/207 175/243/208 186/252/219 185/244/218
f 175/243/208 176/251/209 187/259/220 186/252/219
f 177/184/211 178/183/210 189/190/221 188/191/222
f 178/183/210 179/189/212 190/197/223 189/190/221
f 179/189/212 180/196/213 191/205/224 190/197/223
f 180/196/213 181/204/214 192/214/225 191/205/224
f 181/204/214 182/213/215 193/224/226 192/214/225
f 182/213/215 183/223/216 194/235/227 193/224/226
f 183/223/216 184/234/217 195/245/228 194/235/227
f 184/234/217 185/244/218 196/253/229 195/245/228
f 185/244/218 186/252/219 197/260/230 196/253/229
f 186/252/219 187/259/220 198/266/231 197/260/230
f 188/191/222 189/190/221 200/198/232 199/199/233
f 189/190/221 190/197/223 201/206/234 200/198/232
f 190/197/223 191/205/224 202/215/235 201/206/234
f 191/205/224 192/214/225 203/225/236 202/215/235
f 192/214/225 193/224/226 204/236/237 203/225/236
f 193/224/226 194/235/227 205/246/238 204/236/237
f 194/235/227 195/245/228 206/254/239 205/246/238
f 195/245/228 196/253/229 207/261/240 206/254/239
f 196/253/229 197/260/230 208/267/241 207/261/240
f 197/260/230 198/266/231 209/272/242 208/267/241
f 199/199/233 200/198/232 211/207/243 210/208/244
f 200/198/232 201/206/234 212/216/245 211/207/243
f 201/206/234 202/215/235 213/226/246 212/216/245
f 202/215/235 203/225/236 214/237/247 213/226/246
f 203/225/236 204/236/237 215/247/248 214/237/247
f 204/236/237 205/246/238 216/255/249 215/247/248
f 205/246/238 206/254/239 217/262/250 216/255/249
f 206/254/239 207/261/240 218/268/251 217/262/250
f 207/261/240 208/267/241 219/273/252 218/268/251
f 208/267/241 209/272/242 220/277/253 219/273/252
f 210/208/244 211/207/243 222/217/254 221/218/255
f 211/207/243 212/216/245 223/227/256 222/217/254
f 212/216/245 213/226/246 224/238/257 223/227/256
f 213/226/246 214/237/247 225/248/258 224/238/257
f 214/237/247 215/247/248 226/256/259 225/248/258
f 215/247/248 216/255/249 227/263/260 226/256/259
f 216/255/249 217/262/250 228/269/261 227/263/260
f 217/262/250 218/268/251 229/274/262 228/269/261
f 218/268/251 219/273/252 230/278/263 229/274/262
f 219/273/252 220/277/253 231/281/264 230/278/263
f 221/218/255 222/217/254 233/228/265 232/229/266
f 222/217/254 223/227/256 234/239/267 233/228/265
f 223/227/256 224/238/257 235/249/268 234/239/267
f 224/238/257 225/248/258 236/257/269 235/249/268
f 225/248/258 226/256/259 237/264/270 236/257/269
f 226/256/259 227/263/260 238/270/271 237/264/270
f 227/263/260 228/269/261 239/275/272 238/270/271
f 228/269/261 229/274/262 240/279/273 239/275/272
f 229/274/262 230/278/263 241/282/274 240/279/273
f 230/278/263 231/281/264 242/284/275 241/282/274
f 232/229/266 233/228/265 2/240/276 1/241/277
f 233/228/265 234/239/267 3/250/278 2/240/276
f 234/239/267 235/249/268 4/258/279 3/250/278
f 235/249/268 236/257/269 5/265/280 4/258/279
f 236/257/269 237/264/270 6/271/281 5/265/280
f 237/264/270 238/270/271 7/276/282 6/271/281
f 238/270/271 239/275/272 8/280/283 7/276/282
f 239/275/272 240/279/273 9/283/284 8/280/283
f 240/279/273 241/282/274 10/285/285 9/283/284
f 241/282/274 242/284/275 11/286/286 10/285/285
s 5
f 154/1/287 143/2/288 132/3/289 121/4/290
f 165/5/291 154/1/287 121/4/290 110/6/292
f 176/7/293 165/5/291 110/6/292 99/8/294
f 187/9/295 176/7/293 99/8/294 88/10/296
f 198/11/297 187/9/295 88/10/296 77/12/298
f 209/13/299 198/11/297 77/12/298 66/14/300
f 220/15/301 209/13/299 66/14/300 55/16/302
f 231/17/303 220/15/301 55/16/302 44/18/304
f 242/19/305 231/17/303 44/18/304 33/20/306
f 11/21/307 242/19/305 33/20/306 22/22/308
s 6
f 133/23/309 144/24/310 111/25/311 122/26/312
f 144/24/310 155/27/313 100/28/314 111/25/311
f 155/27/313 166/29/315 89/30/316 100/28/314
f 166/29/315 177/31/317 78/32/318 89/30/316
f 177/31/317 188/33/319 67/34/320 78/32/318
f 188/33/319 199/35/321 56/36/322 67/34/320
f 199/35/321 210/37/323 45/38/324 56/36/322
f 210/37/323 221/39/325 34/40/326 45/38/324
f 221/39/325 232/41/327 23/42/328 34/40/326
f 232/41/327 1/43/329 12/44/330 23/42/328
